<?xml version="1.0" encoding="utf-8"?>
<!-- Generator: Adobe Illustrator 26.5.3, SVG Export Plug-In . SVG Version: 6.00 Build 0)  -->
<svg version="1.1" id="Layer_1" xmlns="http://www.w3.org/2000/svg" xmlns:xlink="http://www.w3.org/1999/xlink" x="0px" y="0px"
	 viewBox="0 0 488 71" style="enable-background:new 0 0 488 71;" xml:space="preserve">
<style type="text/css">
	.st0{font-family:'Arial-BoldMT';}
	.st1{font-size:16px;}
	.st2{font-size:10px;}
	.st3{font-family:'Verdana';}
	.st4{fill:none;stroke:#000000;stroke-miterlimit:10;}
	.st5{stroke:#000000;stroke-miterlimit:10;}
	.st6{fill:none;stroke:#000000;stroke-width:0.5;stroke-miterlimit:10;}
</style>
<text id="callsign" transform="matrix(1 0 0 1 16 15.9116)" class="st0 st1">OHCAQ</text>
<text id="rwy" transform="matrix(1 0 0 1 295.1016 15.9116)" class="st0 st1">30</text>
<text id="adepades" transform="matrix(1 0 0 1 333.2344 15.9116)" class="st0 st1">EFHK EFJY</text>
<text id="squawk" transform="matrix(1 0 0 1 16 35.9116)" class="st0 st1">5554</text>
<text id="atyp" transform="matrix(1 0 0 1 16 50.9116)" class="st0 st2">1 L70  L</text>
<text id="deptime" transform="matrix(1 0 0 1 120 11.9116)" class="st0 st2">1207</text>
<text id="rfl" transform="matrix(1 0 0 1 174 11.9116)" class="st0 st2">F230</text>
<text id="ahdg" transform="matrix(1 0 0 1 227 11.9116)" class="st0 st2">RERGA1L</text>
<text id="eet" transform="matrix(1 0 0 1 427 15.9116)" class="st0 st2">0045</text>
<text id="frul" transform="matrix(1 0 0 1 477 11.9116)" class="st3 st2">I</text>
<text id="spd" transform="matrix(1 0 0 1 16 64.9116)" class="st0 st2">N0114</text>
<text id="rmk" transform="matrix(1 0 0 1 75 64.9116)" class="st0 st2">PBN/A1B1C1D1L1O1S1 DOF/230715 REG/HSTKY...</text>
<text id="stripId" transform="matrix(1 0 0 1 412.6211 64.9116)" class="st0 st2">27121720NOTI</text>
<text id="route" transform="matrix(1 0 0 1 334 30.9116)" class="st0 st2">LILJA RUOKI M857 NUNTO...</text>
<rect x="0.5" y="0.5" class="st4" width="487" height="70"/>
<rect x="0.5" y="0.5" class="st5" width="8" height="15"/>
<rect x="119.5" y="0.5" class="st6" width="53" height="70"/>
<rect x="225.5" y="0.5" class="st6" width="53" height="70"/>
<polyline class="st6" points="331.5,71 331.5,34.5 383.5,34.5 383.5,71 "/>
<polyline class="st6" points="383.5,71 383.5,34.5 435.5,34.5 435.5,71 "/>
<polyline class="st6" points="435.5,71 435.5,34.5 487.5,34.5 487.5,71 "/>
<line class="st6" x1="331.5" y1="0.59" x2="331.5" y2="70.59"/>
</svg>
